<mxfile host="app.diagrams.net" agent="Mozilla/5.0 (Windows NT 10.0; Win64; x64) AppleWebKit/537.36 (KHTML, like Gecko) Chrome/130.0.0.0 Safari/537.36" version="24.8.4">
  <diagram name="Page-1" id="NwIS9GpeupWdbOq6ok08">
    <mxGraphModel dx="456" dy="2423" grid="1" gridSize="10" guides="1" tooltips="1" connect="1" arrows="1" fold="1" page="1" pageScale="1" pageWidth="850" pageHeight="1100" math="0" shadow="0">
      <root>
        <mxCell id="0" />
        <mxCell id="1" parent="0" />
        <mxCell id="BXOaY0AX4OREpFmdxwrN-22" value="&lt;span style=&quot;font-weight: normal;&quot;&gt;Ejercicio 5&lt;/span&gt;&lt;div&gt;&lt;span style=&quot;font-weight: normal;&quot;&gt;&lt;br&gt; Club = (codigoClub, nombre, anioFundacion, codigoCiudad(FK))&lt;br&gt; Ciudad = (codigoCiudad, nombre)&lt;br&gt; Estadio = (codigoEstadio, codigoClub(FK), nombre, direccion)&lt;br&gt; Jugador = (dni, nombre, apellido, edad, codigoCiudad(FK))&lt;br&gt; ClubJugador = (codigoClub(FK), dni(FK), desde, hasta)&lt;/span&gt;&lt;/div&gt;" style="text;whiteSpace=wrap;html=1;fontStyle=1;fillColor=#f5f5f5;strokeColor=#666666;fontColor=#333333;align=left;fontFamily=Comic Sans MS;" vertex="1" parent="1">
          <mxGeometry x="4970" y="810" width="1200" height="130" as="geometry" />
        </mxCell>
        <mxCell id="BXOaY0AX4OREpFmdxwrN-23" value="&lt;b&gt;&amp;nbsp;1. Reportar nombre y año de fundación de clubes de la ciudad de La Plata, además del nombre y dirección del estadio del mismo.&lt;/b&gt;" style="text;whiteSpace=wrap;html=1;fillColor=#f5f5f5;fontColor=#333333;strokeColor=#666666;" vertex="1" parent="1">
          <mxGeometry x="4970" y="970" width="1200" height="40" as="geometry" />
        </mxCell>
        <mxCell id="BXOaY0AX4OREpFmdxwrN-24" value="&lt;b&gt;&amp;nbsp;3. Listar información de todos los clubes donde se desempeñó el jugador Marcelo Gallardo. Indicar nombre, año de fundación y ciudad del club.&lt;/b&gt;" style="text;whiteSpace=wrap;html=1;fillColor=#f5f5f5;fontColor=#333333;strokeColor=#666666;" vertex="1" parent="1">
          <mxGeometry x="4970" y="1370" width="1200" height="40" as="geometry" />
        </mxCell>
        <mxCell id="BXOaY0AX4OREpFmdxwrN-25" value="&lt;b&gt;&amp;nbsp;2. Listar datos personales de jugadores actuales del club River Plate que hayan jugado en el club Boca Juniors.&lt;/b&gt;" style="text;whiteSpace=wrap;html=1;fillColor=#f5f5f5;fontColor=#333333;strokeColor=#666666;" vertex="1" parent="1">
          <mxGeometry x="4970" y="1130" width="1200" height="40" as="geometry" />
        </mxCell>
        <mxCell id="BXOaY0AX4OREpFmdxwrN-26" value="&lt;b&gt;&amp;nbsp;4. Reportar dni, nombre y apellido de aquellos jugadores que no tengan más de 25 años y jueguen en algún club de la ciudad de Junín.&lt;/b&gt;" style="text;whiteSpace=wrap;html=1;fillColor=#f5f5f5;fontColor=#333333;strokeColor=#666666;" vertex="1" parent="1">
          <mxGeometry x="4970" y="1570" width="1200" height="40" as="geometry" />
        </mxCell>
        <mxCell id="BXOaY0AX4OREpFmdxwrN-27" value="&lt;b&gt;&amp;nbsp;5. Mostrar el nombre de los clubes que tengan jugadores de la ciudad de Chivilcoy mayores de 25 años.&lt;/b&gt;" style="text;whiteSpace=wrap;html=1;fillColor=#f5f5f5;fontColor=#333333;strokeColor=#666666;" vertex="1" parent="1">
          <mxGeometry x="4970" y="1770" width="1200" height="40" as="geometry" />
        </mxCell>
        <mxCell id="BXOaY0AX4OREpFmdxwrN-28" value="&lt;b&gt;&amp;nbsp;6. Reportar el nombre y apellido de aquellos jugadores que hayan jugado en todos los clubes.&lt;/b&gt;" style="text;whiteSpace=wrap;html=1;fillColor=#f5f5f5;fontColor=#333333;strokeColor=#666666;" vertex="1" parent="1">
          <mxGeometry x="4970" y="1987.5" width="1200" height="40" as="geometry" />
        </mxCell>
        <mxCell id="BXOaY0AX4OREpFmdxwrN-29" value="&lt;b&gt;&amp;nbsp;7. Listar nombre de los clubes que no hayan tenido ni tengan jugadores de la ciudad de La Plata.&lt;/b&gt;" style="text;whiteSpace=wrap;html=1;fillColor=#f5f5f5;fontColor=#333333;strokeColor=#666666;" vertex="1" parent="1">
          <mxGeometry x="4970" y="2107.5" width="1200" height="40" as="geometry" />
        </mxCell>
        <mxCell id="BXOaY0AX4OREpFmdxwrN-30" value="&lt;b&gt;&amp;nbsp;8. Mostrar dni, nombre y apellido de aquellos jugadores que jugaron o juegan en el club: Club Atlético Rosario Central.&lt;/b&gt;" style="text;whiteSpace=wrap;html=1;fillColor=#f5f5f5;fontColor=#333333;strokeColor=#666666;" vertex="1" parent="1">
          <mxGeometry x="4970" y="2330" width="1200" height="40" as="geometry" />
        </mxCell>
        <mxCell id="BXOaY0AX4OREpFmdxwrN-31" value="&lt;b&gt;&amp;nbsp;9. Eliminar al jugador cuyo dni es: 24242424.&lt;/b&gt;" style="text;whiteSpace=wrap;html=1;fillColor=#f5f5f5;fontColor=#333333;strokeColor=#666666;" vertex="1" parent="1">
          <mxGeometry x="4970" y="2530" width="1200" height="40" as="geometry" />
        </mxCell>
        <mxCell id="BXOaY0AX4OREpFmdxwrN-32" value="&lt;div style=&quot;&quot;&gt;&lt;div&gt;&lt;span style=&quot;font-size: 18px;&quot;&gt;dni_gallardo&amp;nbsp;&lt;/span&gt;&lt;font style=&quot;background-color: initial;&quot; face=&quot;Comic Sans MS&quot;&gt;&lt;font style=&quot;font-size: 24px; background-color: initial;&quot;&gt;&lt;/font&gt;&lt;/font&gt;&lt;font style=&quot;background-color: initial; font-size: 24px;&quot;&gt;&lt;span style=&quot;background-color: initial; font-size: 20px;&quot;&gt;&amp;lt;&lt;/span&gt;&lt;font style=&quot;background-color: initial; font-size: 16px;&quot;&gt;==&amp;nbsp;&lt;/font&gt;&lt;/font&gt;&lt;font style=&quot;background-color: initial;&quot; face=&quot;Comic Sans MS&quot;&gt;&lt;font style=&quot;font-size: 24px; background-color: initial;&quot;&gt;π&lt;/font&gt;&lt;font style=&quot;font-size: 18px; background-color: initial;&quot;&gt;&amp;nbsp;&lt;/font&gt;&lt;/font&gt;&lt;span style=&quot;background-color: initial; color: rgb(51, 51, 51);&quot;&gt;dni&lt;/span&gt;&lt;span style=&quot;background-color: initial; color: rgb(51, 51, 51);&quot;&gt;&amp;nbsp;&lt;/span&gt;&lt;span style=&quot;background-color: initial; font-size: 18px;&quot;&gt;(&lt;/span&gt;&lt;font style=&quot;background-color: initial; font-size: 24px;&quot;&gt;σ&lt;/font&gt;&lt;span style=&quot;background-color: initial;&quot;&gt;&amp;nbsp;(&lt;/span&gt;&lt;span style=&quot;background-color: initial;&quot;&gt;nombre=”Marcelo”) and (apellido=”Gallardo”)&lt;/span&gt;&lt;span style=&quot;background-color: initial; color: rgb(51, 51, 51);&quot;&gt;&amp;nbsp;&lt;/span&gt;&lt;span style=&quot;background-color: initial; font-size: 18px;&quot;&gt;(&lt;/span&gt;&lt;span style=&quot;background-color: initial; font-size: 18px;&quot;&gt;Jugador)&lt;/span&gt;&lt;span style=&quot;font-size: 18px; background-color: initial;&quot;&gt;)&lt;/span&gt;&lt;/div&gt;&lt;div&gt;&lt;span style=&quot;background-color: initial; font-size: 18px;&quot;&gt;codigo_club_gallardo&amp;nbsp;&lt;/span&gt;&lt;font style=&quot;background-color: initial; font-size: 24px;&quot;&gt;&lt;span style=&quot;background-color: initial; font-size: 20px;&quot;&gt;&amp;lt;&lt;/span&gt;&lt;font style=&quot;background-color: initial; font-size: 16px;&quot;&gt;==&amp;nbsp;&lt;/font&gt;&lt;/font&gt;&lt;font style=&quot;background-color: initial;&quot; face=&quot;Comic Sans MS&quot;&gt;&lt;font style=&quot;font-size: 24px; background-color: initial;&quot;&gt;π&lt;/font&gt;&lt;font style=&quot;font-size: 18px; background-color: initial;&quot;&gt;&amp;nbsp;&lt;/font&gt;&lt;/font&gt;&lt;span style=&quot;background-color: initial; color: rgb(51, 51, 51);&quot;&gt;codigoClub&amp;nbsp;&lt;/span&gt;&lt;span style=&quot;background-color: initial; font-size: 18px;&quot;&gt;(&amp;nbsp;&lt;/span&gt;&lt;span style=&quot;background-color: initial; font-size: 18px;&quot;&gt;ClubJugador |x|&amp;nbsp;&lt;/span&gt;&lt;span style=&quot;font-size: 18px;&quot;&gt;dni_gallardo&lt;/span&gt;&lt;span style=&quot;background-color: initial; font-size: 18px;&quot;&gt;&amp;nbsp;&lt;/span&gt;&lt;span style=&quot;background-color: initial; font-size: 18px;&quot;&gt;)&lt;/span&gt;&lt;/div&gt;&lt;div&gt;&lt;font style=&quot;background-color: initial;&quot; face=&quot;Comic Sans MS&quot;&gt;&lt;font style=&quot;font-size: 24px; background-color: initial;&quot;&gt;π&lt;/font&gt;&lt;/font&gt;&lt;span style=&quot;background-color: initial; color: rgb(51, 51, 51);&quot;&gt;&amp;nbsp;Club.nombre, anioFundacion,&amp;nbsp;&lt;/span&gt;&lt;span style=&quot;background-color: initial; color: rgb(51, 51, 51);&quot;&gt;Ciudad.nombre&amp;nbsp;&lt;/span&gt;&lt;font style=&quot;background-color: initial;&quot; face=&quot;Comic Sans MS&quot;&gt;&lt;font style=&quot;font-size: 18px; background-color: initial;&quot;&gt;(&amp;nbsp;&lt;/font&gt;&lt;/font&gt;&lt;font style=&quot;background-color: initial; font-size: 24px;&quot;&gt;σ&amp;nbsp;&lt;/font&gt;&lt;span style=&quot;background-color: initial;&quot;&gt;Club.codigoCiudad = Ciudad&lt;/span&gt;&lt;span style=&quot;background-color: initial;&quot;&gt;.&lt;/span&gt;&lt;span style=&quot;background-color: initial;&quot;&gt;codigoCiudad&amp;nbsp;&lt;/span&gt;&lt;span style=&quot;background-color: initial; font-size: 18px;&quot;&gt;(&lt;/span&gt;&lt;font style=&quot;background-color: initial;&quot; face=&quot;Comic Sans MS&quot;&gt;&lt;font style=&quot;font-size: 18px; background-color: initial;&quot;&gt;&amp;nbsp;&lt;/font&gt;&lt;/font&gt;&lt;span style=&quot;background-color: initial; font-size: 18px;&quot;&gt;Club x Ciudad&amp;nbsp;&lt;/span&gt;&lt;span style=&quot;background-color: initial; font-size: 18px;&quot;&gt;)&lt;/span&gt;&lt;span style=&quot;background-color: initial; font-size: 18px;&quot;&gt;&amp;nbsp;|x|&amp;nbsp;&lt;/span&gt;&lt;span style=&quot;background-color: initial; font-size: 18px;&quot;&gt;codigo_club_gallardo&amp;nbsp;&lt;/span&gt;&lt;span style=&quot;background-color: initial; font-size: 18px;&quot;&gt;)&lt;/span&gt;&lt;/div&gt;&lt;/div&gt;" style="text;whiteSpace=wrap;html=1;verticalAlign=middle;fontFamily=Comic Sans MS;" vertex="1" parent="1">
          <mxGeometry x="4970" y="1410" width="1200" height="120" as="geometry" />
        </mxCell>
        <mxCell id="BXOaY0AX4OREpFmdxwrN-33" value="&lt;div style=&quot;&quot;&gt;&lt;div&gt;&lt;div&gt;&lt;span style=&quot;font-size: 18px;&quot;&gt;codigo_junin&amp;nbsp;&lt;/span&gt;&lt;font style=&quot;background-color: initial; font-size: 24px;&quot;&gt;&lt;span style=&quot;background-color: initial; font-size: 20px;&quot;&gt;&amp;lt;&lt;/span&gt;&lt;font style=&quot;background-color: initial; font-size: 16px;&quot;&gt;==&amp;nbsp;&lt;/font&gt;&lt;/font&gt;&lt;font style=&quot;background-color: initial;&quot; face=&quot;Comic Sans MS&quot;&gt;&lt;font style=&quot;font-size: 24px; background-color: initial;&quot;&gt;π&lt;/font&gt;&lt;font style=&quot;font-size: 18px; background-color: initial;&quot;&gt;&amp;nbsp;&lt;/font&gt;&lt;/font&gt;&lt;span style=&quot;background-color: initial; color: rgb(51, 51, 51);&quot;&gt;codigoCiudad&amp;nbsp;&lt;/span&gt;&lt;font style=&quot;background-color: initial; font-size: 24px;&quot;&gt;&lt;span style=&quot;font-size: 18px;&quot;&gt;(&amp;nbsp;&lt;/span&gt;σ&lt;/font&gt;&lt;span style=&quot;background-color: initial;&quot;&gt;&amp;nbsp;nombre = &quot;Junín&quot;&amp;nbsp;&lt;/span&gt;&lt;span style=&quot;background-color: initial; font-size: 18px;&quot;&gt;(&lt;/span&gt;&lt;span style=&quot;background-color: initial; font-size: 18px;&quot;&gt;Ciudad) )&lt;/span&gt;&lt;/div&gt;&lt;div&gt;&lt;span style=&quot;background-color: initial; font-size: 18px;&quot;&gt;jugador_25&amp;nbsp;&lt;/span&gt;&lt;font style=&quot;background-color: initial; font-size: 24px;&quot;&gt;&lt;span style=&quot;background-color: initial; font-size: 20px;&quot;&gt;&amp;lt;&lt;/span&gt;&lt;font style=&quot;background-color: initial; font-size: 16px;&quot;&gt;==&amp;nbsp;&lt;/font&gt;&lt;/font&gt;&lt;font style=&quot;background-color: initial; font-size: 24px;&quot;&gt;σ&lt;/font&gt;&lt;span style=&quot;background-color: initial;&quot;&gt;&amp;nbsp;edad &amp;lt;= 25&lt;/span&gt;&lt;span style=&quot;background-color: initial; color: rgb(51, 51, 51);&quot;&gt;&amp;nbsp;&lt;/span&gt;&lt;span style=&quot;background-color: initial; font-size: 18px;&quot;&gt;(&lt;/span&gt;&lt;span style=&quot;background-color: initial; font-size: 18px;&quot;&gt;Jugador&lt;/span&gt;&lt;span style=&quot;background-color: initial; font-size: 18px;&quot;&gt;)&lt;/span&gt;&lt;/div&gt;&lt;/div&gt;&lt;div&gt;&lt;font style=&quot;background-color: initial;&quot; face=&quot;Comic Sans MS&quot;&gt;&lt;font style=&quot;font-size: 24px; background-color: initial;&quot;&gt;π&lt;/font&gt;&lt;/font&gt;&lt;span style=&quot;background-color: initial; color: rgb(51, 51, 51);&quot;&gt;&amp;nbsp;&lt;/span&gt;&lt;span style=&quot;background-color: initial; color: rgb(51, 51, 51);&quot;&gt;dni, nombre, apellido&lt;/span&gt;&lt;span style=&quot;background-color: initial; color: rgb(51, 51, 51);&quot;&gt;&amp;nbsp;&lt;/span&gt;&lt;span style=&quot;background-color: initial; font-size: 18px;&quot;&gt;(&amp;nbsp;&lt;/span&gt;&lt;span style=&quot;background-color: initial; font-size: 18px;&quot;&gt;jugador_25 |x|&amp;nbsp;&lt;/span&gt;&lt;span style=&quot;background-color: initial; font-size: 18px;&quot;&gt;codigo_junin&amp;nbsp;&lt;/span&gt;&lt;span style=&quot;background-color: initial; font-size: 18px;&quot;&gt;)&lt;/span&gt;&lt;span style=&quot;background-color: initial; font-size: 18px;&quot;&gt;&lt;br&gt;&lt;/span&gt;&lt;/div&gt;&lt;/div&gt;" style="text;whiteSpace=wrap;html=1;verticalAlign=middle;fontFamily=Comic Sans MS;" vertex="1" parent="1">
          <mxGeometry x="4970" y="1610" width="1200" height="120" as="geometry" />
        </mxCell>
        <mxCell id="BXOaY0AX4OREpFmdxwrN-34" value="&lt;div style=&quot;&quot;&gt;&lt;div&gt;&lt;div&gt;&lt;span style=&quot;font-size: 18px;&quot;&gt;codigo_ciudad_&lt;/span&gt;&lt;span style=&quot;font-size: 18px; background-color: initial;&quot;&gt;chivilcoy&amp;nbsp;&lt;/span&gt;&lt;font style=&quot;background-color: initial; font-size: 24px;&quot;&gt;&lt;span style=&quot;background-color: initial; font-size: 20px;&quot;&gt;&amp;lt;&lt;/span&gt;&lt;font style=&quot;background-color: initial; font-size: 16px;&quot;&gt;==&amp;nbsp;&lt;/font&gt;&lt;/font&gt;&lt;font style=&quot;background-color: initial;&quot; face=&quot;Comic Sans MS&quot;&gt;&lt;font style=&quot;font-size: 24px; background-color: initial;&quot;&gt;π&lt;/font&gt;&lt;font style=&quot;font-size: 18px; background-color: initial;&quot;&gt;&amp;nbsp;&lt;/font&gt;&lt;/font&gt;&lt;span style=&quot;background-color: initial; color: rgb(51, 51, 51);&quot;&gt;codigoCiudad&amp;nbsp;&lt;/span&gt;&lt;font style=&quot;background-color: initial; font-size: 24px;&quot;&gt;&lt;span style=&quot;font-size: 18px;&quot;&gt;(&lt;/span&gt;σ&lt;/font&gt;&lt;span style=&quot;background-color: initial;&quot;&gt;&amp;nbsp;nombre = &quot;Chivilcoy&quot;&amp;nbsp;&lt;/span&gt;&lt;span style=&quot;background-color: initial; font-size: 18px;&quot;&gt;(&lt;/span&gt;&lt;span style=&quot;background-color: initial; font-size: 18px;&quot;&gt;Ciudad))&lt;/span&gt;&lt;/div&gt;&lt;div&gt;&lt;font style=&quot;background-color: initial; font-size: 24px;&quot;&gt;&lt;span style=&quot;font-size: 18px; background-color: initial;&quot;&gt;codigoc&lt;/span&gt;&lt;span style=&quot;font-size: 18px; background-color: initial;&quot;&gt;_jugador_chiivilcoy&lt;/span&gt;&lt;span style=&quot;font-size: 18px; background-color: initial;&quot;&gt;&amp;nbsp;&lt;/span&gt;&lt;span style=&quot;background-color: initial; font-size: 20px;&quot;&gt;&amp;lt;&lt;/span&gt;&lt;font style=&quot;background-color: initial; font-size: 16px;&quot;&gt;==&amp;nbsp;&lt;/font&gt;&lt;/font&gt;&lt;font style=&quot;background-color: initial;&quot; face=&quot;Comic Sans MS&quot;&gt;&lt;font style=&quot;font-size: 24px; background-color: initial;&quot;&gt;π&lt;/font&gt;&lt;font style=&quot;font-size: 18px; background-color: initial;&quot;&gt;&amp;nbsp;&lt;/font&gt;&lt;/font&gt;&lt;span style=&quot;color: rgb(51, 51, 51);&quot;&gt;codigoCiudad&amp;nbsp;&lt;/span&gt;&lt;span style=&quot;background-color: initial; font-size: 18px;&quot;&gt;(&amp;nbsp;&lt;/span&gt;&lt;span style=&quot;background-color: initial; font-size: 18px;&quot;&gt;Jugador |x|&amp;nbsp;&lt;/span&gt;&lt;span style=&quot;background-color: initial; font-size: 18px;&quot;&gt;codigo_ciudad_&lt;/span&gt;&lt;span style=&quot;background-color: initial; font-size: 18px;&quot;&gt;chivilcoy&lt;/span&gt;&lt;span style=&quot;background-color: initial; font-size: 18px;&quot;&gt;&amp;nbsp;&lt;/span&gt;&lt;span style=&quot;background-color: initial; font-size: 18px;&quot;&gt;)&lt;/span&gt;&lt;/div&gt;&lt;/div&gt;&lt;div&gt;&lt;div&gt;&lt;font style=&quot;background-color: initial; font-size: 24px;&quot;&gt;&lt;span style=&quot;font-size: 18px; background-color: initial;&quot;&gt;codigoc&lt;/span&gt;&lt;span style=&quot;font-size: 18px; background-color: initial;&quot;&gt;_mayor_25&lt;/span&gt;&lt;span style=&quot;font-size: 18px; background-color: initial;&quot;&gt;&amp;nbsp;&lt;/span&gt;&lt;span style=&quot;background-color: initial; font-size: 20px;&quot;&gt;&amp;lt;&lt;/span&gt;&lt;font style=&quot;background-color: initial; font-size: 16px;&quot;&gt;==&amp;nbsp;&lt;/font&gt;&lt;/font&gt;&lt;font style=&quot;background-color: initial;&quot; face=&quot;Comic Sans MS&quot;&gt;&lt;font style=&quot;font-size: 24px; background-color: initial;&quot;&gt;π&lt;/font&gt;&lt;font style=&quot;font-size: 18px; background-color: initial;&quot;&gt;&amp;nbsp;&lt;/font&gt;&lt;/font&gt;&lt;span style=&quot;color: rgb(51, 51, 51); background-color: initial;&quot;&gt;codigoCiudad&amp;nbsp;&lt;/span&gt;&lt;span style=&quot;font-size: 18px; background-color: initial;&quot;&gt;(&lt;/span&gt;&lt;span style=&quot;background-color: initial; font-size: 24px;&quot;&gt;σ&amp;nbsp;&lt;/span&gt;&lt;font style=&quot;background-color: initial;&quot; face=&quot;Comic Sans MS&quot;&gt;&lt;font color=&quot;#333333&quot; style=&quot;background-color: initial;&quot;&gt;(edad &amp;gt; 25)&amp;nbsp;&lt;/font&gt;&lt;/font&gt;&lt;span style=&quot;background-color: initial; font-size: 18px;&quot;&gt;(&lt;/span&gt;&lt;span style=&quot;background-color: initial; font-size: 18px;&quot;&gt;Jugador&lt;/span&gt;&lt;span style=&quot;background-color: initial; font-size: 18px;&quot;&gt;)&lt;/span&gt;&lt;span style=&quot;font-size: 18px; background-color: initial;&quot;&gt;)&lt;/span&gt;&lt;/div&gt;&lt;/div&gt;&lt;div&gt;&lt;font style=&quot;background-color: initial;&quot; face=&quot;Comic Sans MS&quot;&gt;&lt;font style=&quot;font-size: 24px; background-color: initial;&quot;&gt;π&lt;/font&gt;&lt;/font&gt;&lt;span style=&quot;background-color: initial; color: rgb(51, 51, 51);&quot;&gt;&amp;nbsp;&lt;/span&gt;&lt;span style=&quot;background-color: initial; color: rgb(51, 51, 51);&quot;&gt;nombre&amp;nbsp;&lt;/span&gt;&lt;font style=&quot;background-color: initial;&quot; face=&quot;Comic Sans MS&quot;&gt;&lt;font style=&quot;font-size: 18px; background-color: initial;&quot;&gt;(&lt;/font&gt;&lt;/font&gt;&lt;span style=&quot;background-color: initial; font-size: 18px;&quot;&gt;&amp;nbsp;&lt;/span&gt;&lt;span style=&quot;background-color: initial; font-size: 18px;&quot;&gt;Club |x|&amp;nbsp;&lt;/span&gt;&lt;span style=&quot;background-color: initial; font-size: 18px;&quot;&gt;codigoc_jugador_chiivilcoy&lt;/span&gt;&lt;span style=&quot;background-color: initial; font-size: 18px;&quot;&gt;&amp;nbsp;&lt;/span&gt;&lt;span style=&quot;background-color: initial; font-size: 18px;&quot;&gt;|x|&amp;nbsp;&lt;/span&gt;&lt;span style=&quot;background-color: initial; font-size: 18px;&quot;&gt;codigoc_mayor_25&lt;/span&gt;&lt;span style=&quot;background-color: initial; font-size: 18px;&quot;&gt;&amp;nbsp;&lt;/span&gt;&lt;span style=&quot;background-color: initial; font-size: 18px;&quot;&gt;)&lt;/span&gt;&lt;/div&gt;&lt;/div&gt;" style="text;whiteSpace=wrap;html=1;verticalAlign=middle;fontFamily=Comic Sans MS;" vertex="1" parent="1">
          <mxGeometry x="4970" y="1810" width="1200" height="140" as="geometry" />
        </mxCell>
        <mxCell id="BXOaY0AX4OREpFmdxwrN-35" value="&lt;div style=&quot;&quot;&gt;&lt;div&gt;&lt;font style=&quot;background-color: initial;&quot; face=&quot;Comic Sans MS&quot;&gt;&lt;font style=&quot;font-size: 24px; background-color: initial;&quot;&gt;π&lt;/font&gt;&lt;/font&gt;&lt;span style=&quot;background-color: initial; color: rgb(51, 51, 51);&quot;&gt;&amp;nbsp;&lt;/span&gt;&lt;span style=&quot;background-color: initial; color: rgb(51, 51, 51);&quot;&gt;nombre, apellido&amp;nbsp;&lt;/span&gt;&lt;span style=&quot;font-size: 18px; background-color: initial;&quot;&gt;(&lt;/span&gt;&lt;font style=&quot;background-color: initial;&quot; face=&quot;Comic Sans MS&quot;&gt;&lt;font style=&quot;font-size: 18px; background-color: initial;&quot;&gt;(&amp;nbsp;&lt;/font&gt;&lt;/font&gt;&lt;span style=&quot;background-color: initial; font-size: 18px;&quot;&gt;Jugador |x| Club&lt;/span&gt;&lt;span style=&quot;background-color: initial; font-size: 18px;&quot;&gt;Jugador&amp;nbsp;&lt;/span&gt;&lt;span style=&quot;background-color: initial; font-size: 18px;&quot;&gt;)&lt;/span&gt;&lt;span style=&quot;background-color: initial; font-size: 18px;&quot;&gt;&amp;nbsp;&lt;/span&gt;&lt;span style=&quot;background-color: initial; font-size: 18px;&quot;&gt;%&amp;nbsp;&lt;/span&gt;&lt;span style=&quot;background-color: initial; font-size: 24px;&quot;&gt;π&lt;/span&gt;&lt;span style=&quot;background-color: initial;&quot;&gt;&amp;nbsp;&lt;/span&gt;&lt;span style=&quot;background-color: initial; color: rgb(51, 51, 51);&quot;&gt;codigoClub&amp;nbsp;&lt;/span&gt;&lt;font style=&quot;background-color: initial; font-size: 24px;&quot;&gt;&lt;span style=&quot;font-size: 18px;&quot;&gt;(Club&lt;/span&gt;&lt;/font&gt;&lt;span style=&quot;background-color: initial; font-size: 18px;&quot;&gt;))&lt;/span&gt;&lt;/div&gt;&lt;div&gt;&lt;h3&gt;&lt;/h3&gt;&lt;/div&gt;&lt;/div&gt;" style="text;whiteSpace=wrap;html=1;verticalAlign=middle;fontFamily=Comic Sans MS;" vertex="1" parent="1">
          <mxGeometry x="4970" y="2027.5" width="1200" height="42.5" as="geometry" />
        </mxCell>
        <mxCell id="BXOaY0AX4OREpFmdxwrN-36" value="&lt;div style=&quot;&quot;&gt;&lt;div&gt;&lt;span style=&quot;background-color: initial; font-size: 18px;&quot;&gt;codigo_la_plata&amp;nbsp;&lt;/span&gt;&lt;span style=&quot;background-color: initial; font-size: 18px;&quot;&gt;&amp;nbsp;&lt;/span&gt;&lt;font style=&quot;background-color: initial; font-size: 24px;&quot;&gt;&lt;span style=&quot;background-color: initial; font-size: 20px;&quot;&gt;&amp;lt;&lt;/span&gt;&lt;font style=&quot;background-color: initial; font-size: 16px;&quot;&gt;==&amp;nbsp;&lt;/font&gt;&lt;/font&gt;&lt;font style=&quot;background-color: initial;&quot; face=&quot;Comic Sans MS&quot;&gt;&lt;font style=&quot;font-size: 24px; background-color: initial;&quot;&gt;π&lt;/font&gt;&lt;font style=&quot;font-size: 18px; background-color: initial;&quot;&gt;&amp;nbsp;&lt;/font&gt;&lt;/font&gt;&lt;span style=&quot;color: rgb(51, 51, 51);&quot;&gt;codigoCiudad&amp;nbsp;&lt;/span&gt;&lt;span style=&quot;font-size: 18px; background-color: initial;&quot;&gt;(&amp;nbsp;&lt;/span&gt;&lt;font style=&quot;background-color: initial; font-size: 24px;&quot;&gt;σ&lt;/font&gt;&lt;span style=&quot;background-color: initial;&quot;&gt;&amp;nbsp;&lt;/span&gt;&lt;font style=&quot;background-color: initial; font-size: 24px;&quot;&gt;&lt;span style=&quot;color: rgb(51, 51, 51); font-size: 12px;&quot;&gt;nombre = &quot;La Plata&quot;&amp;nbsp;&lt;/span&gt;&lt;span style=&quot;font-size: 18px;&quot;&gt;(Ciudad&lt;/span&gt;&lt;/font&gt;&lt;span style=&quot;background-color: initial; font-size: 18px;&quot;&gt;)&lt;/span&gt;&lt;font style=&quot;background-color: initial;&quot; face=&quot;Comic Sans MS&quot;&gt;&lt;font style=&quot;font-size: 18px; background-color: initial;&quot;&gt;&amp;nbsp;&lt;/font&gt;&lt;/font&gt;&lt;span style=&quot;background-color: initial; font-size: 18px;&quot;&gt;)&lt;/span&gt;&lt;/div&gt;&lt;div&gt;&lt;span style=&quot;background-color: initial; font-size: 18px;&quot;&gt;dni_la_plata&amp;nbsp;&lt;/span&gt;&lt;font style=&quot;background-color: initial; font-size: 24px;&quot;&gt;&lt;span style=&quot;background-color: initial; font-size: 20px;&quot;&gt;&amp;lt;&lt;/span&gt;&lt;font style=&quot;background-color: initial; font-size: 16px;&quot;&gt;==&amp;nbsp;&lt;/font&gt;&lt;/font&gt;&lt;font style=&quot;background-color: initial;&quot; face=&quot;Comic Sans MS&quot;&gt;&lt;font style=&quot;font-size: 24px; background-color: initial;&quot;&gt;π&lt;/font&gt;&lt;font style=&quot;font-size: 18px; background-color: initial;&quot;&gt;&amp;nbsp;&lt;/font&gt;&lt;/font&gt;&lt;span style=&quot;color: rgb(51, 51, 51); background-color: initial;&quot;&gt;dni&lt;/span&gt;&lt;font style=&quot;background-color: initial; font-size: 24px;&quot;&gt;&lt;span style=&quot;color: rgb(51, 51, 51); font-size: 12px;&quot;&gt;&amp;nbsp;&lt;/span&gt;&lt;span style=&quot;font-size: 18px;&quot;&gt;(&amp;nbsp;&lt;/span&gt;&lt;/font&gt;&lt;span style=&quot;background-color: initial; font-size: 18px;&quot;&gt;Jugador |x|&amp;nbsp;&lt;/span&gt;&lt;span style=&quot;background-color: initial; font-size: 18px;&quot;&gt;codigo_la_plata&amp;nbsp;&lt;/span&gt;&lt;span style=&quot;background-color: initial; font-size: 18px;&quot;&gt;)&lt;/span&gt;&lt;/div&gt;&lt;div&gt;&lt;div&gt;&lt;span style=&quot;font-size: 18px;&quot;&gt;club_con_jugador_de_lp&amp;nbsp;&lt;/span&gt;&lt;span style=&quot;background-color: initial; font-size: 20px;&quot;&gt;&amp;lt;&lt;/span&gt;&lt;font style=&quot;background-color: initial; font-size: 16px;&quot;&gt;==&amp;nbsp;&lt;/font&gt;&lt;font style=&quot;background-color: initial;&quot; face=&quot;Comic Sans MS&quot;&gt;&lt;font style=&quot;font-size: 24px; background-color: initial;&quot;&gt;π&lt;/font&gt;&lt;font style=&quot;font-size: 18px; background-color: initial;&quot;&gt;&amp;nbsp;&lt;/font&gt;&lt;/font&gt;&lt;span style=&quot;color: rgb(51, 51, 51);&quot;&gt;codigoClub, nombre, anioFundacion, codigoCiudad&lt;/span&gt;&lt;span style=&quot;color: rgb(51, 51, 51);&quot;&gt;&amp;nbsp;&lt;/span&gt;&lt;span style=&quot;background-color: initial; font-size: 16px;&quot;&gt;( Club |x|&amp;nbsp;&lt;/span&gt;&lt;span style=&quot;font-size: 18px;&quot;&gt;dni_la_plata&amp;nbsp;&lt;/span&gt;&lt;span style=&quot;background-color: initial; font-size: 18px;&quot;&gt;&amp;nbsp;&lt;/span&gt;&lt;span style=&quot;background-color: initial; font-size: 16px;&quot;&gt;)&lt;/span&gt;&lt;/div&gt;&lt;/div&gt;&lt;div&gt;&lt;span style=&quot;background-color: initial; font-size: 24px;&quot;&gt;π&lt;/span&gt;&lt;span style=&quot;background-color: initial; color: rgb(51, 51, 51);&quot;&gt;&amp;nbsp;&lt;/span&gt;&lt;span style=&quot;background-color: initial; color: rgb(51, 51, 51);&quot;&gt;nombre&amp;nbsp;&lt;/span&gt;&lt;font style=&quot;background-color: initial; font-size: 24px;&quot;&gt;&lt;span style=&quot;font-size: 18px;&quot;&gt;( Club -&amp;nbsp;&lt;/span&gt;&lt;/font&gt;&lt;span style=&quot;background-color: initial; font-size: 18px;&quot;&gt;club_con_jugador_de_lp&amp;nbsp;&lt;/span&gt;&lt;span style=&quot;background-color: initial; font-size: 18px;&quot;&gt;)&lt;/span&gt;&lt;/div&gt;&lt;/div&gt;" style="text;whiteSpace=wrap;html=1;verticalAlign=middle;fontFamily=Comic Sans MS;" vertex="1" parent="1">
          <mxGeometry x="4970" y="2147.5" width="1200" height="142.5" as="geometry" />
        </mxCell>
        <mxCell id="BXOaY0AX4OREpFmdxwrN-37" value="&lt;div&gt;&lt;span style=&quot;background-color: initial; font-size: 18px;&quot;&gt;codigo_ciudad_rosario&amp;nbsp;&lt;/span&gt;&lt;font style=&quot;background-color: initial; font-size: 24px;&quot;&gt;&lt;span style=&quot;background-color: initial; font-size: 20px;&quot;&gt;&amp;lt;&lt;/span&gt;&lt;font style=&quot;background-color: initial; font-size: 16px;&quot;&gt;==&amp;nbsp;&lt;/font&gt;&lt;/font&gt;&lt;font style=&quot;background-color: initial;&quot; face=&quot;Comic Sans MS&quot;&gt;&lt;font style=&quot;font-size: 24px; background-color: initial;&quot;&gt;π&lt;/font&gt;&lt;font style=&quot;font-size: 18px; background-color: initial;&quot;&gt;&amp;nbsp;&lt;/font&gt;&lt;/font&gt;&lt;span style=&quot;background-color: initial; color: rgb(51, 51, 51);&quot;&gt;codigoClub&amp;nbsp;&lt;/span&gt;&lt;span style=&quot;background-color: initial; font-size: 18px;&quot;&gt;(&amp;nbsp;&lt;/span&gt;&lt;font style=&quot;background-color: initial; font-size: 24px;&quot;&gt;σ&lt;/font&gt;&lt;span style=&quot;background-color: initial;&quot;&gt;&amp;nbsp;&lt;/span&gt;&lt;font style=&quot;background-color: initial; font-size: 24px;&quot;&gt;&lt;font face=&quot;Comic Sans MS&quot;&gt;&lt;span style=&quot;color: rgb(51, 51, 51); font-size: 12px;&quot;&gt;nombre = &quot;&lt;/span&gt;&lt;span style=&quot;font-size: 12px; color: rgb(51, 51, 51);&quot;&gt;Club Atlético Rosario Central&lt;/span&gt;&lt;/font&gt;&lt;span style=&quot;color: rgb(51, 51, 51); font-size: 12px;&quot;&gt;&lt;font face=&quot;m9t9DTYtVGKVmZJwd0jS&quot;&gt;&quot;&lt;/font&gt;&amp;nbsp;&lt;/span&gt;&lt;span style=&quot;font-size: 18px;&quot;&gt;(Club&lt;/span&gt;&lt;/font&gt;&lt;span style=&quot;background-color: initial; font-size: 18px;&quot;&gt;)&lt;/span&gt;&lt;font style=&quot;background-color: initial;&quot; face=&quot;Comic Sans MS&quot;&gt;&lt;font style=&quot;font-size: 18px; background-color: initial;&quot;&gt;&amp;nbsp;&lt;/font&gt;&lt;/font&gt;&lt;span style=&quot;background-color: initial; font-size: 18px;&quot;&gt;)&lt;/span&gt;&lt;/div&gt;&lt;div&gt;&lt;font style=&quot;background-color: initial; font-size: 24px;&quot;&gt;&lt;span style=&quot;font-size: 18px; background-color: initial;&quot;&gt;dni_jugador_rosario&amp;nbsp;&lt;/span&gt;&lt;span style=&quot;background-color: initial; font-size: 20px;&quot;&gt;&amp;lt;&lt;/span&gt;&lt;font style=&quot;background-color: initial; font-size: 16px;&quot;&gt;==&amp;nbsp;&lt;/font&gt;&lt;/font&gt;&lt;font style=&quot;background-color: initial;&quot; face=&quot;Comic Sans MS&quot;&gt;&lt;font style=&quot;font-size: 24px; background-color: initial;&quot;&gt;π&lt;/font&gt;&lt;font style=&quot;font-size: 18px; background-color: initial;&quot;&gt;&amp;nbsp;&lt;/font&gt;&lt;/font&gt;&lt;span style=&quot;color: rgb(51, 51, 51);&quot;&gt;dni&amp;nbsp;&lt;/span&gt;&lt;font style=&quot;background-color: initial; font-size: 24px;&quot;&gt;&lt;span style=&quot;font-size: 18px;&quot;&gt;(&amp;nbsp;&lt;/span&gt;&lt;/font&gt;&lt;span style=&quot;font-size: 18px;&quot;&gt;ClubJugador&amp;nbsp;&lt;/span&gt;&lt;span style=&quot;font-size: 18px; background-color: initial;&quot;&gt;|x|&amp;nbsp;&lt;/span&gt;&lt;span style=&quot;font-size: 18px;&quot;&gt;codigo_ciudad_rosario&amp;nbsp;&lt;/span&gt;&lt;span style=&quot;background-color: initial; font-size: 18px;&quot;&gt;)&lt;/span&gt;&lt;/div&gt;&lt;div&gt;&lt;span style=&quot;background-color: initial; font-size: 24px;&quot;&gt;π&amp;nbsp;&lt;/span&gt;&lt;span style=&quot;background-color: initial; color: rgb(51, 51, 51);&quot;&gt;dni, nombre, apellido&lt;/span&gt;&lt;span style=&quot;background-color: initial; font-size: 18px;&quot;&gt;&amp;nbsp;&lt;/span&gt;&lt;span style=&quot;background-color: initial; font-size: 18px;&quot;&gt;(&amp;nbsp;&lt;/span&gt;&lt;span style=&quot;background-color: initial; font-size: 18px;&quot;&gt;Jugador |x|&amp;nbsp;&lt;/span&gt;&lt;span style=&quot;background-color: initial; font-size: 18px;&quot;&gt;dni_jugador_rosario&amp;nbsp;&lt;/span&gt;&lt;span style=&quot;background-color: initial; font-size: 18px;&quot;&gt;)&lt;/span&gt;&lt;/div&gt;" style="text;whiteSpace=wrap;html=1;verticalAlign=middle;fontFamily=Comic Sans MS;" vertex="1" parent="1">
          <mxGeometry x="4970" y="2370" width="1200" height="120" as="geometry" />
        </mxCell>
        <mxCell id="BXOaY0AX4OREpFmdxwrN-38" value="&lt;br&gt;&lt;div style=&quot;forced-color-adjust: none; color: rgb(0, 0, 0); font-family: &amp;quot;Comic Sans MS&amp;quot;; font-size: 12px; font-style: normal; font-variant-ligatures: normal; font-variant-caps: normal; font-weight: 400; letter-spacing: normal; orphans: 2; text-align: left; text-indent: 0px; text-transform: none; widows: 2; word-spacing: 0px; -webkit-text-stroke-width: 0px; white-space: normal; background-color: rgb(251, 251, 251); text-decoration-thickness: initial; text-decoration-style: initial; text-decoration-color: initial;&quot;&gt;&lt;span style=&quot;forced-color-adjust: none; background-color: initial; font-size: 18px;&quot;&gt;ClubJugador&amp;nbsp;&lt;/span&gt;&lt;font style=&quot;forced-color-adjust: none; background-color: initial; font-size: 24px;&quot;&gt;&lt;span style=&quot;forced-color-adjust: none; background-color: initial; font-size: 20px;&quot;&gt;&amp;lt;&lt;/span&gt;&lt;font style=&quot;forced-color-adjust: none; background-color: initial; font-size: 16px;&quot;&gt;==&amp;nbsp;&lt;/font&gt;&lt;/font&gt;&lt;span style=&quot;forced-color-adjust: none; font-size: 18px;&quot;&gt;ClubJugador -&lt;/span&gt;&lt;span style=&quot;forced-color-adjust: none; background-color: initial; color: rgb(51, 51, 51);&quot;&gt;&amp;nbsp;&lt;/span&gt;&lt;span style=&quot;forced-color-adjust: none; background-color: initial; font-size: 18px;&quot;&gt;(&amp;nbsp;&lt;/span&gt;&lt;font style=&quot;forced-color-adjust: none; background-color: initial; font-size: 24px;&quot;&gt;σ&lt;/font&gt;&lt;span style=&quot;forced-color-adjust: none; background-color: initial;&quot;&gt;&amp;nbsp;&lt;/span&gt;&lt;font style=&quot;forced-color-adjust: none; background-color: initial; font-size: 24px;&quot;&gt;&lt;font style=&quot;forced-color-adjust: none;&quot; face=&quot;Comic Sans MS&quot;&gt;&lt;span style=&quot;forced-color-adjust: none; color: rgb(51, 51, 51); font-size: 12px;&quot;&gt;dni =&amp;nbsp;&lt;/span&gt;&lt;/font&gt;&lt;span style=&quot;forced-color-adjust: none; font-size: 12px;&quot;&gt;24242424&amp;nbsp;&lt;/span&gt;&lt;span style=&quot;forced-color-adjust: none; color: rgb(51, 51, 51); font-size: 12px;&quot;&gt;&amp;nbsp;&lt;/span&gt;&lt;span style=&quot;forced-color-adjust: none; font-size: 18px;&quot;&gt;(&lt;/span&gt;&lt;/font&gt;&lt;span style=&quot;forced-color-adjust: none; font-size: 18px;&quot;&gt;ClubJugador&lt;/span&gt;&lt;span style=&quot;forced-color-adjust: none; background-color: initial; font-size: 18px;&quot;&gt;)&lt;/span&gt;&lt;font style=&quot;forced-color-adjust: none; background-color: initial;&quot; face=&quot;Comic Sans MS&quot;&gt;&lt;font style=&quot;forced-color-adjust: none; font-size: 18px; background-color: initial;&quot;&gt;&amp;nbsp;&lt;/font&gt;&lt;/font&gt;&lt;span style=&quot;forced-color-adjust: none; background-color: initial; font-size: 18px;&quot;&gt;)&lt;/span&gt;&lt;/div&gt;&lt;div&gt;&lt;span style=&quot;background-color: initial; font-size: 18px;&quot;&gt;Jugador&amp;nbsp;&lt;/span&gt;&lt;font style=&quot;background-color: initial; font-size: 24px;&quot;&gt;&lt;span style=&quot;background-color: initial; font-size: 20px;&quot;&gt;&amp;lt;&lt;/span&gt;&lt;font style=&quot;background-color: initial; font-size: 16px;&quot;&gt;==&amp;nbsp;&lt;/font&gt;&lt;/font&gt;&lt;span style=&quot;font-size: 18px;&quot;&gt;Jugador&amp;nbsp;&lt;/span&gt;&lt;span style=&quot;font-size: 18px;&quot;&gt;-&lt;/span&gt;&lt;span style=&quot;background-color: initial; color: rgb(51, 51, 51);&quot;&gt;&amp;nbsp;&lt;/span&gt;&lt;span style=&quot;background-color: initial; font-size: 18px;&quot;&gt;(&amp;nbsp;&lt;/span&gt;&lt;font style=&quot;background-color: initial; font-size: 24px;&quot;&gt;σ&lt;/font&gt;&lt;span style=&quot;background-color: initial;&quot;&gt;&amp;nbsp;&lt;/span&gt;&lt;font style=&quot;background-color: initial; font-size: 24px;&quot;&gt;&lt;font face=&quot;Comic Sans MS&quot;&gt;&lt;span style=&quot;color: rgb(51, 51, 51); font-size: 12px;&quot;&gt;dni =&amp;nbsp;&lt;/span&gt;&lt;/font&gt;&lt;span style=&quot;font-size: 12px;&quot;&gt;24242424&amp;nbsp;&lt;/span&gt;&lt;span style=&quot;color: rgb(51, 51, 51); font-size: 12px;&quot;&gt;&amp;nbsp;&lt;/span&gt;&lt;span style=&quot;font-size: 18px;&quot;&gt;(&lt;/span&gt;&lt;/font&gt;&lt;span style=&quot;font-size: 18px;&quot;&gt;Jugador&lt;/span&gt;&lt;span style=&quot;background-color: initial; font-size: 18px;&quot;&gt;)&lt;/span&gt;&lt;font style=&quot;background-color: initial;&quot; face=&quot;Comic Sans MS&quot;&gt;&lt;font style=&quot;font-size: 18px; background-color: initial;&quot;&gt;&amp;nbsp;&lt;/font&gt;&lt;/font&gt;&lt;span style=&quot;background-color: initial; font-size: 18px;&quot;&gt;)&lt;/span&gt;&lt;/div&gt;&lt;div&gt;&lt;br&gt;&lt;/div&gt;" style="text;whiteSpace=wrap;html=1;verticalAlign=middle;fontFamily=Comic Sans MS;" vertex="1" parent="1">
          <mxGeometry x="4970" y="2570" width="1200" height="80" as="geometry" />
        </mxCell>
        <mxCell id="BXOaY0AX4OREpFmdxwrN-39" value="&lt;div style=&quot;&quot;&gt;&lt;div&gt;&lt;span style=&quot;background-color: initial; font-size: 18px;&quot;&gt;dni_actual_jugador_river&amp;nbsp;&lt;/span&gt;&lt;font style=&quot;background-color: initial; font-size: 24px;&quot;&gt;&lt;span style=&quot;background-color: initial; font-size: 20px;&quot;&gt;&amp;lt;&lt;/span&gt;&lt;font style=&quot;background-color: initial; font-size: 16px;&quot;&gt;==&amp;nbsp;&lt;/font&gt;&lt;/font&gt;&lt;span style=&quot;background-color: initial; color: rgb(51, 51, 51);&quot;&gt;&amp;nbsp;&lt;/span&gt;&lt;span style=&quot;font-size: 24px; background-color: initial;&quot;&gt;π&amp;nbsp;&lt;/span&gt;&lt;span style=&quot;background-color: initial;&quot;&gt;dni&lt;font color=&quot;#333333&quot;&gt;&amp;nbsp;&lt;/font&gt;&lt;/span&gt;&lt;span style=&quot;background-color: initial; font-size: 18px;&quot;&gt;(&lt;/span&gt;&lt;font style=&quot;background-color: initial; font-size: 24px;&quot;&gt;σ&lt;/font&gt;&lt;span style=&quot;background-color: initial;&quot;&gt;&amp;nbsp; (nombre&amp;nbsp;&lt;/span&gt;&lt;span style=&quot;background-color: initial; color: rgb(51, 51, 51);&quot;&gt;= &quot;River Plate&quot;) and (&lt;/span&gt;&lt;span style=&quot;color: rgb(51, 51, 51); background-color: initial;&quot;&gt;hasta &amp;gt;= &quot;6/11/2024&quot;)&lt;/span&gt;&lt;span style=&quot;background-color: initial; color: rgb(51, 51, 51);&quot;&gt;&amp;nbsp;&lt;/span&gt;&lt;span style=&quot;background-color: initial; font-size: 18px;&quot;&gt;(&amp;nbsp;&lt;/span&gt;&lt;span style=&quot;background-color: initial; font-size: 18px;&quot;&gt;ClubJugador |x|&amp;nbsp;&lt;/span&gt;&lt;span style=&quot;background-color: initial; font-size: 18px;&quot;&gt;Club&amp;nbsp;&lt;/span&gt;&lt;span style=&quot;background-color: initial; font-size: 18px;&quot;&gt;)&lt;/span&gt;&lt;span style=&quot;background-color: initial; font-size: 18px;&quot;&gt;)&lt;/span&gt;&lt;/div&gt;&lt;div&gt;&lt;div&gt;&lt;span style=&quot;background-color: initial; font-size: 18px;&quot;&gt;dni_antiguo_jugador_boca&amp;nbsp;&lt;/span&gt;&lt;font style=&quot;background-color: initial; font-size: 24px;&quot;&gt;&lt;span style=&quot;background-color: initial; font-size: 20px;&quot;&gt;&amp;lt;&lt;/span&gt;&lt;font style=&quot;background-color: initial; font-size: 16px;&quot;&gt;==&amp;nbsp;&lt;/font&gt;&lt;/font&gt;&lt;span style=&quot;background-color: initial; color: rgb(51, 51, 51);&quot;&gt;&amp;nbsp;&lt;/span&gt;&lt;span style=&quot;font-size: 24px; background-color: initial;&quot;&gt;π&amp;nbsp;&lt;/span&gt;&lt;span style=&quot;background-color: initial;&quot;&gt;dni&lt;font color=&quot;#333333&quot;&gt;&amp;nbsp;&lt;/font&gt;&lt;/span&gt;&lt;span style=&quot;background-color: initial; font-size: 18px;&quot;&gt;(&lt;/span&gt;&lt;font style=&quot;background-color: initial; font-size: 24px;&quot;&gt;σ&lt;/font&gt;&lt;span style=&quot;background-color: initial;&quot;&gt;&amp;nbsp; (nombre&amp;nbsp;&lt;/span&gt;&lt;span style=&quot;background-color: initial; color: rgb(51, 51, 51);&quot;&gt;= &quot;Boca Juniors&quot;&lt;/span&gt;&lt;span style=&quot;background-color: initial; color: rgb(51, 51, 51);&quot;&gt;) and (&lt;/span&gt;&lt;span style=&quot;background-color: initial; color: rgb(51, 51, 51);&quot;&gt;hasta &amp;lt; &quot;6/11/2024&quot;)&lt;/span&gt;&lt;span style=&quot;background-color: initial; color: rgb(51, 51, 51);&quot;&gt;&amp;nbsp;&lt;/span&gt;&lt;span style=&quot;background-color: initial; font-size: 18px;&quot;&gt;(&amp;nbsp;&lt;/span&gt;&lt;span style=&quot;background-color: initial; font-size: 18px;&quot;&gt;ClubJugador |x|&amp;nbsp;&lt;/span&gt;&lt;span style=&quot;background-color: initial; font-size: 18px;&quot;&gt;Club&amp;nbsp;&lt;/span&gt;&lt;span style=&quot;background-color: initial; font-size: 18px;&quot;&gt;)&lt;/span&gt;&lt;span style=&quot;background-color: initial; font-size: 18px;&quot;&gt;)&lt;/span&gt;&lt;/div&gt;&lt;div&gt;&lt;div&gt;&lt;/div&gt;&lt;/div&gt;&lt;/div&gt;&lt;div&gt;&lt;div&gt;&lt;font style=&quot;background-color: initial; font-size: 24px;&quot;&gt;&lt;span style=&quot;font-size: 18px; background-color: initial;&quot;&gt;jugador_actual_river&amp;nbsp;&lt;/span&gt;&lt;span style=&quot;background-color: initial; font-size: 20px;&quot;&gt;&amp;lt;&lt;/span&gt;&lt;font style=&quot;background-color: initial; font-size: 16px;&quot;&gt;==&lt;/font&gt;&lt;/font&gt;&lt;font style=&quot;background-color: initial; font-size: 24px;&quot;&gt;&lt;font style=&quot;background-color: initial; font-size: 16px;&quot;&gt;&amp;nbsp;&lt;/font&gt;&lt;/font&gt;&lt;span style=&quot;background-color: initial; font-size: 18px;&quot;&gt;(&amp;nbsp;&lt;/span&gt;&lt;span style=&quot;background-color: initial; font-size: 18px;&quot;&gt;Jugador |x|&amp;nbsp;&lt;/span&gt;&lt;span style=&quot;font-size: 18px;&quot;&gt;dni_actual_jugador_river&amp;nbsp;&lt;/span&gt;&lt;span style=&quot;background-color: initial; font-size: 18px;&quot;&gt;)&lt;/span&gt;&lt;/div&gt;&lt;/div&gt;&lt;div&gt;&lt;div&gt;&lt;/div&gt;&lt;/div&gt;&lt;/div&gt;&lt;div style=&quot;&quot;&gt;&lt;span style=&quot;background-color: initial; font-size: 18px;&quot;&gt;jugador_antiguo_boca&amp;nbsp;&lt;/span&gt;&lt;font style=&quot;background-color: initial; font-size: 24px;&quot;&gt;&lt;span style=&quot;background-color: initial; font-size: 20px;&quot;&gt;&amp;lt;&lt;/span&gt;&lt;font style=&quot;background-color: initial; font-size: 16px;&quot;&gt;== &lt;/font&gt;&lt;/font&gt;&lt;span style=&quot;background-color: initial; font-size: 18px;&quot;&gt;(&amp;nbsp;&lt;/span&gt;&lt;span style=&quot;background-color: initial; font-size: 18px;&quot;&gt;Jugador |x|&amp;nbsp;&lt;/span&gt;&lt;span style=&quot;font-size: 18px;&quot;&gt;dni_antiguo_jugador_boca&amp;nbsp;&lt;/span&gt;&lt;span style=&quot;background-color: initial; font-size: 18px;&quot;&gt;)&lt;/span&gt;&lt;/div&gt;&lt;div style=&quot;&quot;&gt;&lt;div style=&quot;&quot;&gt;&lt;font style=&quot;font-size: 19px; background-color: initial;&quot; face=&quot;Comic Sans MS&quot;&gt;&lt;font style=&quot;font-size: 24px; background-color: initial;&quot;&gt;π&lt;/font&gt;&lt;font style=&quot;font-size: 18px; background-color: initial;&quot;&gt;&amp;nbsp;&lt;/font&gt;&lt;/font&gt;&lt;span style=&quot;font-size: 19px; background-color: initial; color: rgb(51, 51, 51);&quot;&gt;dni, jugador.nombre, apellido, edad&lt;/span&gt;&lt;font style=&quot;font-size: 19px; background-color: initial;&quot; face=&quot;Comic Sans MS&quot;&gt;&lt;span style=&quot;background-color: initial; color: rgb(51, 51, 51);&quot;&gt;&lt;span style=&quot;font-size: 18px;&quot;&gt;&amp;nbsp;&lt;/span&gt;&lt;/span&gt;&lt;font style=&quot;font-size: 18px; background-color: initial;&quot;&gt;(&lt;/font&gt;&lt;/font&gt;&lt;font style=&quot;font-size: 19px; background-color: initial;&quot; face=&quot;Comic Sans MS&quot;&gt;&lt;font style=&quot;font-size: 18px; background-color: initial;&quot;&gt;&amp;nbsp;&lt;/font&gt;&lt;/font&gt;&lt;span style=&quot;font-size: 18px; background-color: initial;&quot;&gt;jugador_actual_river&amp;nbsp;&lt;/span&gt;&lt;span style=&quot;background-color: initial;&quot;&gt;&lt;font style=&quot;font-size: 21px;&quot;&gt;&lt;b&gt;∩&lt;/b&gt;&lt;/font&gt;&lt;span style=&quot;font-size: 19px;&quot;&gt;&amp;nbsp;&lt;/span&gt;&lt;/span&gt;&lt;span style=&quot;font-size: 18px; background-color: initial;&quot;&gt;jugador_antiguo_boca&amp;nbsp;&lt;/span&gt;&lt;span style=&quot;font-size: 18px; background-color: initial;&quot;&gt;)&lt;/span&gt;&lt;/div&gt;&lt;/div&gt;" style="text;whiteSpace=wrap;html=1;verticalAlign=middle;fontFamily=Comic Sans MS;" vertex="1" parent="1">
          <mxGeometry x="4970" y="1170" width="1200" height="160" as="geometry" />
        </mxCell>
        <mxCell id="BXOaY0AX4OREpFmdxwrN-40" value="&lt;div&gt;&lt;span style=&quot;background-color: initial; font-size: 18px;&quot;&gt;club_la_plata&amp;nbsp;&lt;/span&gt;&lt;font style=&quot;background-color: initial; font-size: 24px;&quot;&gt;&lt;span style=&quot;background-color: initial; font-size: 20px;&quot;&gt;&amp;lt;&lt;/span&gt;&lt;font style=&quot;background-color: initial; font-size: 16px;&quot;&gt;==&amp;nbsp;&lt;/font&gt;&lt;/font&gt;&lt;font style=&quot;background-color: initial; font-size: 24px;&quot;&gt;σ&lt;/font&gt;&lt;span style=&quot;background-color: initial;&quot;&gt;&amp;nbsp;&lt;/span&gt;&lt;span style=&quot;background-color: initial;&quot;&gt;nombre&lt;/span&gt;&lt;span style=&quot;background-color: initial; color: rgb(51, 51, 51);&quot;&gt;&amp;nbsp;= &quot;La Plata&quot;&lt;/span&gt;&lt;span style=&quot;background-color: initial; color: rgb(51, 51, 51);&quot;&gt;&amp;nbsp;&lt;/span&gt;&lt;span style=&quot;background-color: initial; font-size: 18px;&quot;&gt;(&amp;nbsp;&lt;/span&gt;&lt;span style=&quot;background-color: initial; font-size: 18px;&quot;&gt;Club&lt;/span&gt;&lt;span style=&quot;background-color: initial; font-size: 18px;&quot;&gt;&amp;nbsp;|x|&amp;nbsp;&lt;/span&gt;&lt;span style=&quot;background-color: initial; font-size: 18px;&quot;&gt;Ciudad&amp;nbsp;&lt;/span&gt;&lt;span style=&quot;background-color: initial; font-size: 18px;&quot;&gt;)&lt;/span&gt;&lt;/div&gt;&lt;div&gt;&lt;font style=&quot;background-color: initial;&quot; face=&quot;Comic Sans MS&quot;&gt;&lt;font style=&quot;font-size: 24px; background-color: initial;&quot;&gt;π&lt;/font&gt;&lt;font style=&quot;font-size: 18px; background-color: initial;&quot;&gt;&amp;nbsp;&lt;/font&gt;&lt;/font&gt;&lt;span style=&quot;background-color: initial; color: rgb(51, 51, 51);&quot;&gt;club_la_plata.nombre, anioFundacion, estadio.&lt;/span&gt;&lt;span style=&quot;background-color: initial; color: rgb(51, 51, 51);&quot;&gt;nombre, direccion&lt;/span&gt;&lt;font style=&quot;background-color: initial;&quot; face=&quot;Comic Sans MS&quot;&gt;&lt;span style=&quot;background-color: initial; color: rgb(51, 51, 51);&quot;&gt;&lt;span style=&quot;font-size: 18px;&quot;&gt;&amp;nbsp;&lt;/span&gt;&lt;/span&gt;&lt;font style=&quot;font-size: 18px; background-color: initial;&quot;&gt;(&lt;/font&gt;&lt;/font&gt;&lt;font style=&quot;background-color: initial;&quot; face=&quot;Comic Sans MS&quot;&gt;&lt;font style=&quot;font-size: 18px; background-color: initial;&quot;&gt;&amp;nbsp;&lt;/font&gt;&lt;/font&gt;&lt;span style=&quot;background-color: initial; font-size: 18px;&quot;&gt;club_la_plata&amp;nbsp;&lt;/span&gt;&lt;span style=&quot;background-color: initial; font-size: 18px;&quot;&gt;&amp;nbsp;x E&lt;/span&gt;&lt;span style=&quot;background-color: initial; font-size: 18px;&quot;&gt;stadio&amp;nbsp;&lt;/span&gt;&lt;span style=&quot;font-size: 18px; background-color: initial;&quot;&gt;)&lt;/span&gt;&lt;/div&gt;" style="text;whiteSpace=wrap;html=1;verticalAlign=middle;fontFamily=Comic Sans MS;" vertex="1" parent="1">
          <mxGeometry x="4970" y="1010" width="1200" height="80" as="geometry" />
        </mxCell>
        <mxCell id="BXOaY0AX4OREpFmdxwrN-41" value="" style="rounded=0;whiteSpace=wrap;html=1;fillColor=#FFCCE6;strokeColor=#000000;" vertex="1" parent="1">
          <mxGeometry x="4930" y="810" width="40" height="1880" as="geometry" />
        </mxCell>
        <mxCell id="BXOaY0AX4OREpFmdxwrN-42" value="" style="rounded=0;whiteSpace=wrap;html=1;fillColor=#FFCCE6;strokeColor=#000000;" vertex="1" parent="1">
          <mxGeometry x="6170" y="810" width="40" height="1880" as="geometry" />
        </mxCell>
      </root>
    </mxGraphModel>
  </diagram>
</mxfile>
